<svg width="28" height="24" fill="none" xmlns="http://www.w3.org/2000/svg"><path d="M1.967 7.671a.25.25 0 01.25-.238H17.86a.25.25 0 01.25.238l.735 14.709a.25.25 0 01-.25.262H1.482a.25.25 0 01-.25-.262l.735-14.71z" stroke="#313133" stroke-width="1.5"/><path fill-rule="evenodd" clip-rule="evenodd" d="M13.94 10.025c.02-.396.028-.814.028-1.253 0-2.155-.235-3.807-.831-4.888-.28-.505-.627-.867-1.071-1.114-.452-.252-1.093-.435-2.028-.435s-1.576.183-2.028.435c-.444.247-.792.609-1.07 1.114-.597 1.081-.832 2.733-.832 4.888 0 .439 0 .856.005 1.253h-1.5c-.005-.408-.005-.826-.005-1.253 0-4.383.905-7.937 5.43-7.937 4.525 0 5.43 3.554 5.43 7.937 0 .427-.008.845-.026 1.253H13.94z" fill="#313133"/><circle cx="20.481" cy="7.519" r="7.519" fill="#313133"/><path d="M19.318 7.325h.34c.22 0 .433-.018.639-.055.212-.044.4-.113.56-.209a1.186 1.186 0 00.539-1.034c0-.198-.036-.374-.11-.528a1.13 1.13 0 00-.307-.407 1.304 1.304 0 00-.44-.253 1.352 1.352 0 00-.517-.099c-.33 0-.613.085-.847.253-.228.17-.4.404-.517.704l-.968-.34c.19-.47.495-.837.913-1.1a2.661 2.661 0 011.463-.408c.322 0 .627.048.913.143.293.088.55.22.77.396.22.176.392.396.517.66.132.264.198.569.198.913a1.7 1.7 0 01-.11.616 1.708 1.708 0 01-.286.517 1.823 1.823 0 01-.98.638v.022c.228.044.437.121.628.231.198.11.366.25.506.418.14.162.25.349.33.561.08.213.12.444.12.693 0 .39-.073.734-.22 1.034a2.221 2.221 0 01-.582.737c-.242.198-.52.349-.836.451a3.107 3.107 0 01-.968.154c-.616 0-1.159-.139-1.628-.418-.47-.278-.81-.71-1.023-1.298l.99-.33c.117.338.315.613.594.825.286.213.634.32 1.045.32.198 0 .388-.03.572-.089.19-.066.36-.16.506-.286a1.381 1.381 0 00.484-1.11 1.24 1.24 0 00-.176-.683 1.328 1.328 0 00-.462-.44 1.748 1.748 0 00-.627-.242 3.236 3.236 0 00-.693-.077h-.33v-.88z" fill="#fff"/></svg>