<svg width="23" height="24" fill="none" xmlns="http://www.w3.org/2000/svg"><path d="M22.725 22.526L17.266 17.1c1.78-1.828 2.908-4.305 2.908-7.076C20.174 4.482 15.664 0 10.087 0 4.509 0 0 4.482 0 10.025s4.51 10.024 10.087 10.024c2.136 0 4.153-.707 5.815-1.828l5.577 5.543c.178.177.415.236.653.236.237 0 .474-.059.652-.236a.908.908 0 00-.059-1.238zM1.78 10.025c0-4.541 3.738-8.256 8.307-8.256 4.569 0 8.307 3.715 8.307 8.256 0 4.54-3.738 8.255-8.307 8.255-4.569 0-8.307-3.715-8.307-8.255z" fill="#313133"/></svg>